<?xml version="1.0" encoding="utf-8" ?>
<!DOCTYPE svg PUBLIC "-//W3C//DTD SVG 1.1//EN" "http://www.w3.org/Graphics/SVG/1.1/DTD/svg11.dtd">
<svg height="1132" version="1.1" width="2108" xmlns="http://www.w3.org/2000/svg">
<polygon fill="#ffffff" points="1486,886 2036,886 2036,910 2085,910 2085,1117 1486,1117 1486,886" stroke="#ffffff" stroke-width="1"/>
<rect fill="none" height="24" stroke="#000000" stroke-width="1" width="550" x="1486" y="886"/>
<text font-family="Dialog" font-size="12" x="1491" y="900">
db</text>
<rect fill="none" height="207" stroke="#000000" stroke-width="1" width="599" x="1486" y="910"/>
<polygon fill="#ffffff" points="14,14 2044,14 2044,38 2093,38 2093,821 14,821 14,14" stroke="#ffffff" stroke-width="1"/>
<rect fill="none" height="24" stroke="#000000" stroke-width="1" width="2030" x="14" y="14"/>
<text font-family="Dialog" font-size="12" x="19" y="28">
lg</text>
<rect fill="none" height="783" stroke="#000000" stroke-width="1" width="2079" x="14" y="38"/>
<rect fill="#ffffff" height="126" stroke="#ffffff" stroke-width="1" width="352" x="574" y="334"/>
<rect fill="none" height="126" stroke="#000000" stroke-width="1" width="352" x="574" y="334"/>
<text font-family="Dialog" font-size="12" x="721" y="348">
Participant</text>
<rect fill="#000000" height="1" stroke="#000000" stroke-width="1" width="352" x="574" y="358"/>
<text font-family="Dialog" font-size="12" x="578" y="373">
registered : Calendar</text>
<rect fill="#000000" height="1" stroke="#000000" stroke-width="1" width="352" x="574" y="383"/>
<text font-family="Dialog" font-size="12" x="578" y="398">
bookCourse(course : Course) : boolean</text>
<text font-family="Dialog" font-size="12" x="578" y="415">
cancelCourse(course : Course) : boolean</text>
<text font-family="Dialog" font-size="12" x="578" y="432">
getRegistered() : Calendar</text>
<text font-family="Dialog" font-size="12" x="578" y="449">
setRegistered(registered : Calendar)</text>
<rect fill="#ffffff" height="72" stroke="#ffffff" stroke-width="1" width="361" x="574" y="494"/>
<rect fill="none" height="72" stroke="#000000" stroke-width="1" width="361" x="574" y="494"/>
<text font-family="Dialog" font-size="12" x="729" y="508">
Instructor</text>
<rect fill="#000000" height="1" stroke="#000000" stroke-width="1" width="361" x="574" y="518"/>
<rect fill="#000000" height="1" stroke="#000000" stroke-width="1" width="361" x="574" y="539"/>
<text font-family="Dialog" font-size="12" x="578" y="554">
removeParticipant(course : Course,participant : Participant) : void</text>
<rect fill="#ffffff" height="381" stroke="#ffffff" stroke-width="1" width="480" x="30" y="390"/>
<rect fill="none" height="381" stroke="#000000" stroke-width="1" width="480" x="30" y="390"/>
<text font-family="Dialog" font-size="12" x="256" y="404">
User</text>
<rect fill="#000000" height="1" stroke="#000000" stroke-width="1" width="480" x="30" y="414"/>
<text font-family="Dialog" font-size="12" x="34" y="429">
username : String</text>
<text font-family="Dialog" font-size="12" x="34" y="446">
password : String</text>
<text font-family="Dialog" font-size="12" x="34" y="463">
firstname : String</text>
<text font-family="Dialog" font-size="12" x="34" y="480">
lastname : String</text>
<text font-family="Dialog" font-size="12" x="34" y="497">
email : String</text>
<text font-family="Dialog" font-size="12" x="34" y="514">
phone : String</text>
<rect fill="#000000" height="1" stroke="#000000" stroke-width="1" width="480" x="30" y="532"/>
<text font-family="Dialog" font-size="12" x="34" y="547">
findCourse(name : String,level : Integer,group : Integer,term : Term,program : Program)</text>
<text font-family="Dialog" font-size="12" x="34" y="564">
getUsername() : String</text>
<text font-family="Dialog" font-size="12" x="34" y="581">
setUsername(username : String)</text>
<text font-family="Dialog" font-size="12" x="34" y="598">
getPassword() : String</text>
<text font-family="Dialog" font-size="12" x="34" y="615">
setPassword(password : String)</text>
<text font-family="Dialog" font-size="12" x="34" y="632">
getFirstname() : String</text>
<text font-family="Dialog" font-size="12" x="34" y="649">
setFirstname(firstname : String)</text>
<text font-family="Dialog" font-size="12" x="34" y="666">
getLastname() : String</text>
<text font-family="Dialog" font-size="12" x="34" y="683">
setLastname(lastname : String)</text>
<text font-family="Dialog" font-size="12" x="34" y="700">
getEmail() : String</text>
<text font-family="Dialog" font-size="12" x="34" y="717">
setEmail(email : String)</text>
<text font-family="Dialog" font-size="12" x="34" y="734">
getPhone() : String</text>
<text font-family="Dialog" font-size="12" x="34" y="751">
setPhone(phone : String)</text>
<rect fill="#ffffff" height="224" stroke="#ffffff" stroke-width="1" width="620" x="334" y="86"/>
<rect fill="none" height="224" stroke="#000000" stroke-width="1" width="620" x="334" y="86"/>
<text font-family="Dialog" font-size="12" x="626" y="100">
Admin</text>
<rect fill="#000000" height="1" stroke="#000000" stroke-width="1" width="620" x="334" y="110"/>
<rect fill="#000000" height="1" stroke="#000000" stroke-width="1" width="620" x="334" y="148"/>
<text font-family="Dialog" font-size="12" x="338" y="163">
createProgram(name : String,description : String,terms : Integer) : Program</text>
<text font-family="Dialog" font-size="12" x="338" y="180">
createCourse(courseIdentifier : String,description : String,maxParticipants,level : Integer,group : Integer) : Course</text>
<text font-family="Dialog" font-size="12" x="338" y="197">
cloneCourse(course : Course,term : Term,timeslots : List&lt;Timeslot&gt;,program : Program) : Course</text>
<text font-family="Dialog" font-size="12" x="338" y="214">
addInstructor(course : Course,instructor : Instructor)</text>
<text font-family="Dialog" font-size="12" x="338" y="231">
removeInstructor(course : Course,instructor : Instructor)</text>
<text font-family="Dialog" font-size="12" x="338" y="248">
createTerm(startDate : Calendar,endDate : Calendar)</text>
<text font-family="Dialog" font-size="12" x="338" y="265">
removeProgram(program : Programm) : boolean</text>
<text font-family="Dialog" font-size="12" x="338" y="282">
removeCourse(course : Course)</text>
<rect fill="#ffffff" height="330" stroke="#ffffff" stroke-width="1" width="256" x="1022" y="366"/>
<rect fill="none" height="330" stroke="#000000" stroke-width="1" width="256" x="1022" y="366"/>
<text font-family="Dialog" font-size="12" x="1129" y="380">
Course</text>
<rect fill="#000000" height="1" stroke="#000000" stroke-width="1" width="256" x="1022" y="390"/>
<text font-family="Dialog" font-size="12" x="1026" y="405">
courseIdentifier : String</text>
<text font-family="Dialog" font-size="12" x="1026" y="422">
description : String</text>
<text font-family="Dialog" font-size="12" x="1026" y="439">
maxParticipants : Integer</text>
<text font-family="Dialog" font-size="12" x="1026" y="456">
level : Integer</text>
<text font-family="Dialog" font-size="12" x="1026" y="473">
group : Integer</text>
<rect fill="#000000" height="1" stroke="#000000" stroke-width="1" width="256" x="1022" y="500"/>
<text font-family="Dialog" font-size="12" x="1026" y="515">
getCourseIdentifier() : String</text>
<text font-family="Dialog" font-size="12" x="1026" y="532">
setCourseIdentifier(courseIdentifier : String)</text>
<text font-family="Dialog" font-size="12" x="1026" y="549">
setDescription(description : String)</text>
<text font-family="Dialog" font-size="12" x="1026" y="566">
getDescription() : String</text>
<text font-family="Dialog" font-size="12" x="1026" y="583">
getMaxParticipants() : Integer</text>
<text font-family="Dialog" font-size="12" x="1026" y="600">
setMaxParticipants(maxParticipants : Integer)</text>
<text font-family="Dialog" font-size="12" x="1026" y="617">
getLevel() : Integer</text>
<text font-family="Dialog" font-size="12" x="1026" y="634">
setLevel(level : Integer)</text>
<text font-family="Dialog" font-size="12" x="1026" y="651">
setGroup(group : Integer)</text>
<text font-family="Dialog" font-size="12" x="1026" y="668">
getGroup() : Integer</text>
<rect fill="#ffffff" height="177" stroke="#ffffff" stroke-width="1" width="194" x="1390" y="486"/>
<rect fill="none" height="177" stroke="#000000" stroke-width="1" width="194" x="1390" y="486"/>
<text font-family="Dialog" font-size="12" x="1472" y="500">
Term</text>
<rect fill="#000000" height="1" stroke="#000000" stroke-width="1" width="194" x="1390" y="510"/>
<text font-family="Dialog" font-size="12" x="1394" y="525">
startDate : Calendar</text>
<text font-family="Dialog" font-size="12" x="1394" y="542">
endDate : Calendar</text>
<rect fill="#000000" height="1" stroke="#000000" stroke-width="1" width="194" x="1390" y="569"/>
<text font-family="Dialog" font-size="12" x="1394" y="584">
getStartDate() : Calendar</text>
<text font-family="Dialog" font-size="12" x="1394" y="601">
setStartDate(startDate : Calendar)</text>
<text font-family="Dialog" font-size="12" x="1394" y="618">
getEndDate() : Calendar</text>
<text font-family="Dialog" font-size="12" x="1394" y="635">
setEndDate(endDate : Calendar)</text>
<rect fill="#ffffff" height="280" stroke="#ffffff" stroke-width="1" width="278" x="1678" y="102"/>
<rect fill="none" height="280" stroke="#000000" stroke-width="1" width="278" x="1678" y="102"/>
<text font-family="Dialog" font-size="12" x="1792" y="116">
TimeSlot</text>
<rect fill="#000000" height="1" stroke="#000000" stroke-width="1" width="278" x="1678" y="126"/>
<text font-family="Dialog" font-size="12" x="1682" y="141">
hourOfDay : Integer</text>
<text font-family="Dialog" font-size="12" x="1682" y="158">
minuteOfHour : Integer</text>
<text font-family="Dialog" font-size="12" x="1682" y="175">
durationInMinutes : Integer</text>
<rect fill="#000000" height="1" stroke="#000000" stroke-width="1" width="278" x="1678" y="211"/>
<text font-family="Dialog" font-size="12" x="1682" y="226">
getDayOfWeek() : DayOfWeek</text>
<text font-family="Dialog" font-size="12" x="1682" y="243">
setDayOfWeek(dayOfWeek : DayOfWeek)</text>
<text font-family="Dialog" font-size="12" x="1682" y="260">
getHourOfDay() : Integer</text>
<text font-family="Dialog" font-size="12" x="1682" y="277">
setHourOfDay(hourOfDay : Integer)</text>
<text font-family="Dialog" font-size="12" x="1682" y="294">
getMinuteOfHour() : Integer</text>
<text font-family="Dialog" font-size="12" x="1682" y="311">
setMinuteOfHour(minuteOfHour : Integer)</text>
<text font-family="Dialog" font-size="12" x="1682" y="328">
getDurationInMinutes() : Integer</text>
<text font-family="Dialog" font-size="12" x="1682" y="345">
setDurationInMinutes(durationInMinutes : Integer)</text>
<rect fill="#ffffff" height="228" stroke="#ffffff" stroke-width="1" width="200" x="1030" y="86"/>
<rect fill="none" height="228" stroke="#000000" stroke-width="1" width="200" x="1030" y="86"/>
<text font-family="Dialog" font-size="12" x="1106" y="100">
Program</text>
<rect fill="#000000" height="1" stroke="#000000" stroke-width="1" width="200" x="1030" y="110"/>
<text font-family="Dialog" font-size="12" x="1034" y="125">
name : String</text>
<text font-family="Dialog" font-size="12" x="1034" y="142">
description : String</text>
<text font-family="Dialog" font-size="12" x="1034" y="159">
levels : Integer</text>
<rect fill="#000000" height="1" stroke="#000000" stroke-width="1" width="200" x="1030" y="186"/>
<text font-family="Dialog" font-size="12" x="1034" y="201">
getName() : String</text>
<text font-family="Dialog" font-size="12" x="1034" y="218">
setName(name : String)</text>
<text font-family="Dialog" font-size="12" x="1034" y="235">
getDescription() : String</text>
<text font-family="Dialog" font-size="12" x="1034" y="252">
setDescription(description : String)</text>
<text font-family="Dialog" font-size="12" x="1034" y="269">
getLevels() : Integer</text>
<text font-family="Dialog" font-size="12" x="1034" y="286">
setLevels(levels : Integer)</text>
<rect fill="none" height="25" stroke="#5555aa" stroke-width="1" width="200" x="1030" y="271"/>
<rect fill="none" height="23" stroke="#5555aa" stroke-width="1" width="198" x="1031" y="272"/>
<polyline fill="none" points="1262,366 1262,198 1366,198" stroke="#000000" stroke-width="1"/>
<text font-family="Dialog" font-size="12" x="1241" y="349">
1</text>
<text font-family="Dialog" font-size="12" x="1333" y="186">
1..*</text>
<polyline fill="none" points="935,542 1022,542" stroke="#000000" stroke-width="1"/>
<text font-family="Dialog" font-size="12" x="777" y="568">
1..3</text>
<text font-family="Dialog" font-size="12" x="1002" y="562">
0..*</text>
<polyline fill="none" points="926,436 1022,436" stroke="#000000" stroke-width="1"/>
<text font-family="Dialog" font-size="12" x="932" y="431">
0..*</text>
<text font-family="Dialog" font-size="12" x="998" y="431">
0..*</text>
<polyline fill="none" points="1198,366 1198,314" stroke="#000000" stroke-width="1"/>
<text font-family="Dialog" font-size="12" x="1172" y="349">
0..*</text>
<text font-family="Dialog" font-size="12" x="1177" y="341">
1</text>
<polyline fill="none" points="1278,630 1390,630" stroke="#000000" stroke-width="1"/>
<text font-family="Dialog" font-size="12" x="1284" y="625">
0..*</text>
<text font-family="Dialog" font-size="12" x="1371" y="625">
1</text>
<polyline fill="none" points="926,350 1126,350 1126,314" stroke="#000000" stroke-width="1"/>
<text font-family="Dialog" font-size="12" x="932" y="345">
0..*</text>
<text font-family="Dialog" font-size="12" x="1105" y="341">
1</text>
<rect fill="#ffffff" height="172" stroke="#ffffff" stroke-width="1" width="106" x="1678" y="414"/>
<rect fill="none" height="172" stroke="#000000" stroke-width="1" width="106" x="1678" y="414"/>
<text font-family="Dialog" font-size="12" x="1699" y="448">
DayOfWeek</text>
<text font-family="Dialog" font-size="12" x="1682" y="429">
&lt;&lt;enumeration&gt;&gt;</text>
<rect fill="#000000" height="1" stroke="#000000" stroke-width="1" width="106" x="1678" y="458"/>
<text font-family="Dialog" font-size="12" x="1682" y="473">
SUNDAY</text>
<text font-family="Dialog" font-size="12" x="1682" y="490">
MONDAY</text>
<text font-family="Dialog" font-size="12" x="1682" y="507">
TUESDAY</text>
<text font-family="Dialog" font-size="12" x="1682" y="524">
WEDNESDAY</text>
<text font-family="Dialog" font-size="12" x="1682" y="541">
THURSDAY</text>
<text font-family="Dialog" font-size="12" x="1682" y="558">
FRIDAY</text>
<text font-family="Dialog" font-size="12" x="1682" y="575">
SATURDAY</text>
<rect fill="#ffffff" height="279" stroke="#ffffff" stroke-width="1" width="263" x="1366" y="94"/>
<rect fill="none" height="279" stroke="#000000" stroke-width="1" width="263" x="1366" y="94"/>
<text font-family="Dialog" font-size="12" x="1476" y="108">
Lesson</text>
<rect fill="#000000" height="1" stroke="#000000" stroke-width="1" width="263" x="1366" y="118"/>
<text font-family="Dialog" font-size="12" x="1370" y="133">
startDate : Calendar</text>
<text font-family="Dialog" font-size="12" x="1370" y="150">
endDate : Calendar</text>
<text font-family="Dialog" font-size="12" x="1370" y="167">
room : String</text>
<text font-family="Dialog" font-size="12" x="1370" y="184">
repitionInWeeks : Integer</text>
<rect fill="#000000" height="1" stroke="#000000" stroke-width="1" width="263" x="1366" y="211"/>
<text font-family="Dialog" font-size="12" x="1370" y="226">
getStartDate() : Calendar</text>
<text font-family="Dialog" font-size="12" x="1370" y="243">
setStartDate(startDate : Calendar)</text>
<text font-family="Dialog" font-size="12" x="1370" y="260">
getEndDate() : Calendar</text>
<text font-family="Dialog" font-size="12" x="1370" y="277">
setEndDate(endDate : Calendar)</text>
<text font-family="Dialog" font-size="12" x="1370" y="294">
getRoom() : String</text>
<text font-family="Dialog" font-size="12" x="1370" y="311">
setRoom(room : String)</text>
<text font-family="Dialog" font-size="12" x="1370" y="328">
setRepitionInWeeks(repitionInWeeks : Integer)</text>
<text font-family="Dialog" font-size="12" x="1370" y="345">
getRepitionInWeeks() : Integer</text>
<polyline fill="none" points="1629,197 1678,197" stroke="#000000" stroke-width="1"/>
<line fill="#000000" stroke="#000000" stroke-width="1" x1="1666" x2="1678" y1="204" y2="197"/>
<line fill="#000000" stroke="#000000" stroke-width="1" x1="1666" x2="1678" y1="190" y2="197"/>
<text font-family="Dialog" font-size="12" x="1640" y="192">
1</text>
<text font-family="Dialog" font-size="12" x="1659" y="192">
1</text>
<polyline fill="none" points="954,278 1030,278" stroke="#000000" stroke-width="1"/>
<text font-family="Dialog" font-size="12" x="974" y="293">
*</text>
<text font-family="Dialog" font-size="12" x="1002" y="293">
*</text>
<rect fill="#ffffff" height="68" stroke="#ffffff" stroke-width="1" width="66" x="62" y="142"/>
<rect fill="none" height="68" stroke="#000000" stroke-width="1" width="66" x="62" y="142"/>
<text font-family="Dialog" font-size="12" font-style="italic" x="82" y="156">
Role</text>
<rect fill="#000000" height="1" stroke="#000000" stroke-width="1" width="66" x="62" y="166"/>
<rect fill="#000000" height="1" stroke="#000000" stroke-width="1" width="66" x="62" y="187"/>
<polyline fill="none" points="334,174 128,174" stroke="#000000" stroke-width="1"/>
<polygon fill="#ffffff" points="128,174 140,167 140,181" stroke="#ffffff" stroke-width="1"/>
<polygon fill="none" points="128,174 140,167 140,181" stroke="#000000" stroke-width="1"/>
<polyline fill="none" points="574,350 286,350 286,190 128,190" stroke="#000000" stroke-width="1"/>
<polygon fill="#ffffff" points="128,190 140,183 140,197" stroke="#ffffff" stroke-width="1"/>
<polygon fill="none" points="128,190 140,183 140,197" stroke="#000000" stroke-width="1"/>
<polyline fill="none" points="574,526 542,526 542,374 254,374 254,206 128,206" stroke="#000000" stroke-width="1"/>
<polygon fill="#ffffff" points="128,206 140,199 140,213" stroke="#ffffff" stroke-width="1"/>
<polygon fill="none" points="128,206 140,199 140,213" stroke="#000000" stroke-width="1"/>
<polyline fill="none" points="102,210 102,390" stroke="#000000" stroke-width="1"/>
<text font-family="Dialog" font-size="12" x="111" y="242">
0..*</text>
<text font-family="Dialog" font-size="12" x="115" y="373">
1</text>
<rect fill="#ffffff" height="87" stroke="#ffffff" stroke-width="1" width="122" x="1926" y="726"/>
<rect fill="none" height="87" stroke="#000000" stroke-width="1" width="122" x="1926" y="726"/>
<text font-family="Dialog" font-size="12" x="1959" y="760">
Persistent</text>
<text font-family="Dialog" font-size="12" x="1949" y="741">
&lt;&lt;interface&gt;&gt;</text>
<rect fill="#000000" height="1" stroke="#000000" stroke-width="1" width="122" x="1926" y="770"/>
<text font-family="Dialog" font-size="12" x="1930" y="785">
getID() : UUID</text>
<text font-family="Dialog" font-size="12" x="1930" y="802">
getVersion() : Integer</text>
<rect fill="#ffffff" height="120" stroke="#ffffff" stroke-width="1" width="144" x="1910" y="558"/>
<rect fill="none" height="120" stroke="#000000" stroke-width="1" width="144" x="1910" y="558"/>
<text font-family="Dialog" font-size="12" x="1915" y="572">
PersistentHibernateImpl</text>
<rect fill="#000000" height="1" stroke="#000000" stroke-width="1" width="144" x="1910" y="582"/>
<text font-family="Dialog" font-size="12" x="1914" y="597">
id : UUID</text>
<text font-family="Dialog" font-size="12" x="1914" y="614">
version : Integer</text>
<rect fill="#000000" height="1" stroke="#000000" stroke-width="1" width="144" x="1910" y="640"/>
<line fill="#000000" stroke="#000000" stroke-width="1" x1="1984" x2="1984" y1="678" y2="683"/>
<line fill="#000000" stroke="#000000" stroke-width="1" x1="1984" x2="1984" y1="688" y2="693"/>
<line fill="#000000" stroke="#000000" stroke-width="1" x1="1984" x2="1984" y1="698" y2="703"/>
<line fill="#000000" stroke="#000000" stroke-width="1" x1="1984" x2="1984" y1="708" y2="713"/>
<line fill="#000000" stroke="#000000" stroke-width="1" x1="1984" x2="1984" y1="718" y2="723"/>
<polygon fill="#ffffff" points="1984,726 1977,714 1991,714" stroke="#ffffff" stroke-width="1"/>
<polygon fill="none" points="1984,726 1977,714 1991,714" stroke="#000000" stroke-width="1"/>
<text font-family="Dialog" font-size="12" x="1999" y="715">
&lt;&lt;realize&gt;&gt;</text>
<polyline fill="none" points="1584,614 1910,614" stroke="#000000" stroke-width="1"/>
<polygon fill="#ffffff" points="1910,614 1898,621 1898,607" stroke="#ffffff" stroke-width="1"/>
<polygon fill="none" points="1910,614 1898,621 1898,607" stroke="#000000" stroke-width="1"/>
<polyline fill="none" points="1932,382 1932,558" stroke="#000000" stroke-width="1"/>
<polygon fill="#ffffff" points="1932,558 1925,546 1939,546" stroke="#ffffff" stroke-width="1"/>
<polygon fill="none" points="1932,558 1925,546 1939,546" stroke="#000000" stroke-width="1"/>
<polyline fill="none" points="1494,94 1494,86 1974,86 1974,558" stroke="#000000" stroke-width="1"/>
<polygon fill="#ffffff" points="1974,558 1967,546 1981,546" stroke="#ffffff" stroke-width="1"/>
<polygon fill="none" points="1974,558 1967,546 1981,546" stroke="#000000" stroke-width="1"/>
<polyline fill="none" points="1126,86 1126,70 1998,70 1998,558" stroke="#000000" stroke-width="1"/>
<polygon fill="#ffffff" points="1998,558 1991,546 2005,546" stroke="#ffffff" stroke-width="1"/>
<polygon fill="none" points="1998,558 1991,546 2005,546" stroke="#000000" stroke-width="1"/>
<polyline fill="none" points="110,142 110,54 2022,54 2022,558" stroke="#000000" stroke-width="1"/>
<polygon fill="#ffffff" points="2022,558 2015,546 2029,546" stroke="#ffffff" stroke-width="1"/>
<polygon fill="none" points="2022,558 2015,546 2029,546" stroke="#000000" stroke-width="1"/>
<polyline fill="none" points="1614,373 1614,598 1910,598" stroke="#000000" stroke-width="1"/>
<polygon fill="#ffffff" points="1910,598 1898,605 1898,591" stroke="#ffffff" stroke-width="1"/>
<polygon fill="none" points="1910,598 1898,605 1898,591" stroke="#000000" stroke-width="1"/>
<polyline fill="none" points="1278,686 1614,686 1614,630 1910,630" stroke="#000000" stroke-width="1"/>
<polygon fill="#ffffff" points="1910,630 1898,637 1898,623" stroke="#ffffff" stroke-width="1"/>
<polygon fill="none" points="1910,630 1898,637 1898,623" stroke="#000000" stroke-width="1"/>
<polyline fill="none" points="510,734 1638,734 1638,646 1910,646" stroke="#000000" stroke-width="1"/>
<polygon fill="#ffffff" points="1910,646 1898,653 1898,639" stroke="#ffffff" stroke-width="1"/>
<polygon fill="none" points="1910,646 1898,653 1898,639" stroke="#000000" stroke-width="1"/>
<rect fill="#ffffff" height="68" stroke="#ffffff" stroke-width="1" width="130" x="1526" y="1030"/>
<rect fill="none" height="68" stroke="#000000" stroke-width="1" width="130" x="1526" y="1030"/>
<text font-family="Dialog" font-size="12" x="1531" y="1044">
db::InstructorDAOImpl</text>
<rect fill="#000000" height="1" stroke="#000000" stroke-width="1" width="130" x="1526" y="1054"/>
<rect fill="#000000" height="1" stroke="#000000" stroke-width="1" width="130" x="1526" y="1075"/>
<rect fill="#ffffff" height="160" stroke="#ffffff" stroke-width="1" width="274" x="1750" y="926"/>
<rect fill="none" height="160" stroke="#000000" stroke-width="1" width="274" x="1750" y="926"/>
<text font-family="Dialog" font-size="12" x="1864" y="960">
db::DAO</text>
<text font-family="Dialog" font-size="12" x="1849" y="941">
&lt;&lt;interface&gt;&gt;</text>
<rect fill="#000000" height="1" stroke="#000000" stroke-width="1" width="274" x="1750" y="970"/>
<text font-family="Dialog" font-size="12" x="1754" y="985">
find(id : PK) : Persistent</text>
<text font-family="Dialog" font-size="12" x="1754" y="1002">
saveOrUpdate(newPersistentObject : Persistent)</text>
<text font-family="Dialog" font-size="12" x="1754" y="1019">
delete(id : PK)</text>
<text font-family="Dialog" font-size="12" x="1754" y="1036">
delete(persistentObject : Persistent)</text>
<text font-family="Dialog" font-size="12" x="1754" y="1053">
getAll() : List&lt;Persistent&gt;</text>
<line fill="#000000" stroke="#000000" stroke-width="1" x1="1982" x2="1982" y1="926" y2="921"/>
<line fill="#000000" stroke="#000000" stroke-width="1" x1="1982" x2="1982" y1="916" y2="911"/>
<line fill="#000000" stroke="#000000" stroke-width="1" x1="1982" x2="1982" y1="906" y2="901"/>
<line fill="#000000" stroke="#000000" stroke-width="1" x1="1982" x2="1982" y1="896" y2="891"/>
<line fill="#000000" stroke="#000000" stroke-width="1" x1="1982" x2="1982" y1="886" y2="881"/>
<line fill="#000000" stroke="#000000" stroke-width="1" x1="1982" x2="1982" y1="876" y2="871"/>
<line fill="#000000" stroke="#000000" stroke-width="1" x1="1982" x2="1982" y1="866" y2="861"/>
<line fill="#000000" stroke="#000000" stroke-width="1" x1="1982" x2="1982" y1="856" y2="851"/>
<line fill="#000000" stroke="#000000" stroke-width="1" x1="1982" x2="1982" y1="846" y2="841"/>
<line fill="#000000" stroke="#000000" stroke-width="1" x1="1982" x2="1982" y1="836" y2="831"/>
<line fill="#000000" stroke="#000000" stroke-width="1" x1="1982" x2="1982" y1="826" y2="821"/>
<line fill="#000000" stroke="#000000" stroke-width="1" x1="1982" x2="1982" y1="816" y2="813"/>
<line fill="#000000" stroke="#000000" stroke-width="1" x1="1989" x2="1982" y1="825" y2="813"/>
<line fill="#000000" stroke="#000000" stroke-width="1" x1="1975" x2="1982" y1="825" y2="813"/>
<polygon fill="#ffffff" points="606,878 748,878 748,902 797,902 797,1093 606,1093 606,878" stroke="#ffffff" stroke-width="1"/>
<rect fill="none" height="24" stroke="#000000" stroke-width="1" width="142" x="606" y="878"/>
<text font-family="Dialog" font-size="12" x="611" y="892">
tapestry</text>
<rect fill="none" height="191" stroke="#000000" stroke-width="1" width="191" x="606" y="902"/>
<rect fill="#ffffff" height="104" stroke="#ffffff" stroke-width="1" width="96" x="646" y="942"/>
<rect fill="none" height="104" stroke="#000000" stroke-width="1" width="96" x="646" y="942"/>
<text font-family="Dialog" font-size="12" x="658" y="956">
EditInstructor</text>
<rect fill="#000000" height="1" stroke="#000000" stroke-width="1" width="96" x="646" y="966"/>
<rect fill="#000000" height="1" stroke="#000000" stroke-width="1" width="96" x="646" y="1003"/>
<text font-family="Dialog" font-size="12" x="650" y="1018">
onSuccess()</text>
<rect fill="#ffffff" height="66" stroke="#ffffff" stroke-width="1" width="128" x="1526" y="926"/>
<rect fill="none" height="66" stroke="#000000" stroke-width="1" width="128" x="1526" y="926"/>
<text font-family="Dialog" font-size="12" x="1552" y="960">
InstructorDAO</text>
<text font-family="Dialog" font-size="12" x="1552" y="941">
&lt;&lt;interface&gt;&gt;</text>
<rect fill="#000000" height="1" stroke="#000000" stroke-width="1" width="128" x="1526" y="970"/>
<polyline fill="none" points="1654,966 1750,966" stroke="#000000" stroke-width="1"/>
<polygon fill="#ffffff" points="1750,966 1738,973 1738,959" stroke="#ffffff" stroke-width="1"/>
<polygon fill="none" points="1750,966 1738,973 1738,959" stroke="#000000" stroke-width="1"/>
<line fill="#000000" stroke="#000000" stroke-width="1" x1="1526" x2="1521" y1="950" y2="950"/>
<line fill="#000000" stroke="#000000" stroke-width="1" x1="1516" x2="1511" y1="950" y2="950"/>
<line fill="#000000" stroke="#000000" stroke-width="1" x1="1506" x2="1501" y1="950" y2="950"/>
<line fill="#000000" stroke="#000000" stroke-width="1" x1="1496" x2="1491" y1="950" y2="950"/>
<line fill="#000000" stroke="#000000" stroke-width="1" x1="1486" x2="1481" y1="950" y2="950"/>
<line fill="#000000" stroke="#000000" stroke-width="1" x1="1476" x2="1471" y1="950" y2="950"/>
<line fill="#000000" stroke="#000000" stroke-width="1" x1="1466" x2="1461" y1="950" y2="950"/>
<line fill="#000000" stroke="#000000" stroke-width="1" x1="1456" x2="1451" y1="950" y2="950"/>
<line fill="#000000" stroke="#000000" stroke-width="1" x1="1446" x2="1441" y1="950" y2="950"/>
<line fill="#000000" stroke="#000000" stroke-width="1" x1="1436" x2="1431" y1="950" y2="950"/>
<line fill="#000000" stroke="#000000" stroke-width="1" x1="1426" x2="1421" y1="950" y2="950"/>
<line fill="#000000" stroke="#000000" stroke-width="1" x1="1416" x2="1411" y1="950" y2="950"/>
<line fill="#000000" stroke="#000000" stroke-width="1" x1="1406" x2="1401" y1="950" y2="950"/>
<line fill="#000000" stroke="#000000" stroke-width="1" x1="1396" x2="1391" y1="950" y2="950"/>
<line fill="#000000" stroke="#000000" stroke-width="1" x1="1386" x2="1381" y1="950" y2="950"/>
<line fill="#000000" stroke="#000000" stroke-width="1" x1="1376" x2="1371" y1="950" y2="950"/>
<line fill="#000000" stroke="#000000" stroke-width="1" x1="1366" x2="1361" y1="950" y2="950"/>
<line fill="#000000" stroke="#000000" stroke-width="1" x1="1356" x2="1351" y1="950" y2="950"/>
<line fill="#000000" stroke="#000000" stroke-width="1" x1="1346" x2="1341" y1="950" y2="950"/>
<line fill="#000000" stroke="#000000" stroke-width="1" x1="1336" x2="1331" y1="950" y2="950"/>
<line fill="#000000" stroke="#000000" stroke-width="1" x1="1326" x2="1321" y1="950" y2="950"/>
<line fill="#000000" stroke="#000000" stroke-width="1" x1="1316" x2="1311" y1="950" y2="950"/>
<line fill="#000000" stroke="#000000" stroke-width="1" x1="1306" x2="1301" y1="950" y2="950"/>
<line fill="#000000" stroke="#000000" stroke-width="1" x1="1296" x2="1291" y1="950" y2="950"/>
<line fill="#000000" stroke="#000000" stroke-width="1" x1="1286" x2="1281" y1="950" y2="950"/>
<line fill="#000000" stroke="#000000" stroke-width="1" x1="1276" x2="1271" y1="950" y2="950"/>
<line fill="#000000" stroke="#000000" stroke-width="1" x1="1266" x2="1261" y1="950" y2="950"/>
<line fill="#000000" stroke="#000000" stroke-width="1" x1="1256" x2="1251" y1="950" y2="950"/>
<line fill="#000000" stroke="#000000" stroke-width="1" x1="1246" x2="1241" y1="950" y2="950"/>
<line fill="#000000" stroke="#000000" stroke-width="1" x1="1236" x2="1231" y1="950" y2="950"/>
<line fill="#000000" stroke="#000000" stroke-width="1" x1="1226" x2="1221" y1="950" y2="950"/>
<line fill="#000000" stroke="#000000" stroke-width="1" x1="1216" x2="1211" y1="950" y2="950"/>
<line fill="#000000" stroke="#000000" stroke-width="1" x1="1206" x2="1201" y1="950" y2="950"/>
<line fill="#000000" stroke="#000000" stroke-width="1" x1="1196" x2="1191" y1="950" y2="950"/>
<line fill="#000000" stroke="#000000" stroke-width="1" x1="1186" x2="1181" y1="950" y2="950"/>
<line fill="#000000" stroke="#000000" stroke-width="1" x1="1176" x2="1171" y1="950" y2="950"/>
<line fill="#000000" stroke="#000000" stroke-width="1" x1="1166" x2="1161" y1="950" y2="950"/>
<line fill="#000000" stroke="#000000" stroke-width="1" x1="1156" x2="1151" y1="950" y2="950"/>
<line fill="#000000" stroke="#000000" stroke-width="1" x1="1146" x2="1141" y1="950" y2="950"/>
<line fill="#000000" stroke="#000000" stroke-width="1" x1="1136" x2="1131" y1="950" y2="950"/>
<line fill="#000000" stroke="#000000" stroke-width="1" x1="1126" x2="1121" y1="950" y2="950"/>
<line fill="#000000" stroke="#000000" stroke-width="1" x1="1116" x2="1111" y1="950" y2="950"/>
<line fill="#000000" stroke="#000000" stroke-width="1" x1="1106" x2="1101" y1="950" y2="950"/>
<line fill="#000000" stroke="#000000" stroke-width="1" x1="1096" x2="1091" y1="950" y2="950"/>
<line fill="#000000" stroke="#000000" stroke-width="1" x1="1086" x2="1081" y1="950" y2="950"/>
<line fill="#000000" stroke="#000000" stroke-width="1" x1="1076" x2="1071" y1="950" y2="950"/>
<line fill="#000000" stroke="#000000" stroke-width="1" x1="1066" x2="1061" y1="950" y2="950"/>
<line fill="#000000" stroke="#000000" stroke-width="1" x1="1056" x2="1051" y1="950" y2="950"/>
<line fill="#000000" stroke="#000000" stroke-width="1" x1="1046" x2="1041" y1="950" y2="950"/>
<line fill="#000000" stroke="#000000" stroke-width="1" x1="1036" x2="1031" y1="950" y2="950"/>
<line fill="#000000" stroke="#000000" stroke-width="1" x1="1026" x2="1021" y1="950" y2="950"/>
<line fill="#000000" stroke="#000000" stroke-width="1" x1="1016" x2="1011" y1="950" y2="950"/>
<line fill="#000000" stroke="#000000" stroke-width="1" x1="1006" x2="1001" y1="950" y2="950"/>
<line fill="#000000" stroke="#000000" stroke-width="1" x1="996" x2="991" y1="950" y2="950"/>
<line fill="#000000" stroke="#000000" stroke-width="1" x1="986" x2="981" y1="950" y2="950"/>
<line fill="#000000" stroke="#000000" stroke-width="1" x1="976" x2="971" y1="950" y2="950"/>
<line fill="#000000" stroke="#000000" stroke-width="1" x1="966" x2="961" y1="950" y2="950"/>
<line fill="#000000" stroke="#000000" stroke-width="1" x1="956" x2="951" y1="950" y2="950"/>
<line fill="#000000" stroke="#000000" stroke-width="1" x1="946" x2="941" y1="950" y2="950"/>
<line fill="#000000" stroke="#000000" stroke-width="1" x1="936" x2="931" y1="950" y2="950"/>
<line fill="#000000" stroke="#000000" stroke-width="1" x1="926" x2="921" y1="950" y2="950"/>
<line fill="#000000" stroke="#000000" stroke-width="1" x1="916" x2="911" y1="950" y2="950"/>
<line fill="#000000" stroke="#000000" stroke-width="1" x1="910" x2="910" y1="950" y2="945"/>
<line fill="#000000" stroke="#000000" stroke-width="1" x1="910" x2="910" y1="940" y2="935"/>
<line fill="#000000" stroke="#000000" stroke-width="1" x1="910" x2="910" y1="930" y2="925"/>
<line fill="#000000" stroke="#000000" stroke-width="1" x1="910" x2="910" y1="920" y2="915"/>
<line fill="#000000" stroke="#000000" stroke-width="1" x1="910" x2="910" y1="910" y2="905"/>
<line fill="#000000" stroke="#000000" stroke-width="1" x1="910" x2="910" y1="900" y2="895"/>
<line fill="#000000" stroke="#000000" stroke-width="1" x1="910" x2="910" y1="890" y2="885"/>
<line fill="#000000" stroke="#000000" stroke-width="1" x1="910" x2="910" y1="880" y2="875"/>
<line fill="#000000" stroke="#000000" stroke-width="1" x1="910" x2="910" y1="870" y2="865"/>
<line fill="#000000" stroke="#000000" stroke-width="1" x1="910" x2="910" y1="860" y2="855"/>
<line fill="#000000" stroke="#000000" stroke-width="1" x1="910" x2="910" y1="850" y2="845"/>
<line fill="#000000" stroke="#000000" stroke-width="1" x1="910" x2="910" y1="840" y2="835"/>
<line fill="#000000" stroke="#000000" stroke-width="1" x1="910" x2="910" y1="830" y2="825"/>
<line fill="#000000" stroke="#000000" stroke-width="1" x1="910" x2="910" y1="820" y2="815"/>
<line fill="#000000" stroke="#000000" stroke-width="1" x1="910" x2="910" y1="810" y2="805"/>
<line fill="#000000" stroke="#000000" stroke-width="1" x1="910" x2="910" y1="800" y2="795"/>
<line fill="#000000" stroke="#000000" stroke-width="1" x1="910" x2="910" y1="790" y2="785"/>
<line fill="#000000" stroke="#000000" stroke-width="1" x1="910" x2="910" y1="780" y2="775"/>
<line fill="#000000" stroke="#000000" stroke-width="1" x1="910" x2="910" y1="770" y2="765"/>
<line fill="#000000" stroke="#000000" stroke-width="1" x1="910" x2="910" y1="760" y2="755"/>
<line fill="#000000" stroke="#000000" stroke-width="1" x1="910" x2="910" y1="750" y2="745"/>
<line fill="#000000" stroke="#000000" stroke-width="1" x1="910" x2="910" y1="740" y2="735"/>
<line fill="#000000" stroke="#000000" stroke-width="1" x1="910" x2="910" y1="730" y2="725"/>
<line fill="#000000" stroke="#000000" stroke-width="1" x1="910" x2="910" y1="720" y2="715"/>
<line fill="#000000" stroke="#000000" stroke-width="1" x1="910" x2="910" y1="710" y2="705"/>
<line fill="#000000" stroke="#000000" stroke-width="1" x1="910" x2="910" y1="700" y2="695"/>
<line fill="#000000" stroke="#000000" stroke-width="1" x1="910" x2="910" y1="690" y2="685"/>
<line fill="#000000" stroke="#000000" stroke-width="1" x1="910" x2="910" y1="680" y2="675"/>
<line fill="#000000" stroke="#000000" stroke-width="1" x1="910" x2="910" y1="670" y2="665"/>
<line fill="#000000" stroke="#000000" stroke-width="1" x1="910" x2="910" y1="660" y2="655"/>
<line fill="#000000" stroke="#000000" stroke-width="1" x1="910" x2="910" y1="650" y2="645"/>
<line fill="#000000" stroke="#000000" stroke-width="1" x1="910" x2="910" y1="640" y2="635"/>
<line fill="#000000" stroke="#000000" stroke-width="1" x1="910" x2="910" y1="630" y2="625"/>
<line fill="#000000" stroke="#000000" stroke-width="1" x1="910" x2="910" y1="620" y2="615"/>
<line fill="#000000" stroke="#000000" stroke-width="1" x1="910" x2="910" y1="610" y2="605"/>
<line fill="#000000" stroke="#000000" stroke-width="1" x1="910" x2="910" y1="600" y2="595"/>
<line fill="#000000" stroke="#000000" stroke-width="1" x1="910" x2="910" y1="590" y2="585"/>
<line fill="#000000" stroke="#000000" stroke-width="1" x1="910" x2="910" y1="580" y2="575"/>
<line fill="#000000" stroke="#000000" stroke-width="1" x1="910" x2="910" y1="570" y2="566"/>
<line fill="#000000" stroke="#000000" stroke-width="1" x1="917" x2="910" y1="578" y2="566"/>
<line fill="#000000" stroke="#000000" stroke-width="1" x1="903" x2="910" y1="578" y2="566"/>
<line fill="#000000" stroke="#000000" stroke-width="1" x1="1598" x2="1598" y1="1030" y2="1025"/>
<line fill="#000000" stroke="#000000" stroke-width="1" x1="1598" x2="1598" y1="1020" y2="1015"/>
<line fill="#000000" stroke="#000000" stroke-width="1" x1="1598" x2="1598" y1="1010" y2="1005"/>
<line fill="#000000" stroke="#000000" stroke-width="1" x1="1598" x2="1598" y1="1000" y2="995"/>
<polygon fill="#ffffff" points="1598,992 1605,1004 1591,1004" stroke="#ffffff" stroke-width="1"/>
<polygon fill="none" points="1598,992 1605,1004 1591,1004" stroke="#000000" stroke-width="1"/>
<text font-family="Dialog" font-size="12" x="1613" y="1024">
&lt;&lt;realize&gt;&gt;</text>
<polyline fill="none" points="702,942 702,566" stroke="#000000" stroke-width="1"/>
<line fill="#000000" stroke="#000000" stroke-width="1" x1="709" x2="702" y1="578" y2="566"/>
<line fill="#000000" stroke="#000000" stroke-width="1" x1="695" x2="702" y1="578" y2="566"/>
<text font-family="Dialog" font-size="12" x="681" y="593">
1</text>
<polyline fill="none" points="742,982 1526,982" stroke="#000000" stroke-width="1"/>
<line fill="#000000" stroke="#000000" stroke-width="1" x1="1514" x2="1526" y1="989" y2="982"/>
<line fill="#000000" stroke="#000000" stroke-width="1" x1="1514" x2="1526" y1="975" y2="982"/>
<text font-family="Dialog" font-size="12" x="1507" y="977">
1</text>
<polyline fill="none" points="1742,382 1742,414" stroke="#000000" stroke-width="1"/>
<line fill="#000000" stroke="#000000" stroke-width="1" x1="1735" x2="1742" y1="402" y2="414"/>
<line fill="#000000" stroke="#000000" stroke-width="1" x1="1749" x2="1742" y1="402" y2="414"/>
<text font-family="Dialog" font-size="12" x="1755" y="412">
1</text>
</svg>
